# AST/ASF file generated using VICON BodyLanguage
# -----------------------------------------------
:version 1.10
:name VICON
:units
  mass 1.0
  length 0.45
  angle deg
:documentation
   .ast/.asf automatically generated from VICON data using
   VICON BodyBuilder and BodyLanguage model FoxedUp or BRILLIANT.MOD
:root
   order TX TY TZ RX RY RZ
   axis XYZ
   position 0 0 0  
   orientation 0 0 0 
:bonedata
  begin
     id 1 
     name lhipjoint
     direction 0.756833 -0.6125 0.228138 
     length 2.53827 
     axis 0 0 0  XYZ
  end
  begin
     id 2 
     name lfemur
     direction 0.34202 -0.939693 0  
     length 6.51821  
     axis 0 0 20  XYZ
    dof rx ry rz
    limits (-160.0 20.0)
           (-70.0 70.0)
           (-60.0 70.0)
  end
  begin
     id 3 
     name ltibia
     direction 0.34202 -0.939693 0   
     length 6.99902   
     axis 0 0 20   XYZ
    dof rx
    limits (-10.0 170.0)
  end
  begin
     id 4 
     name lfoot
     direction 0.0951515 -0.261427 0.960522   
     length 1.92102   
     axis -90 7.62852e-016 20   XYZ
    dof rx rz
    limits (-45.0 90.0)
           (-70.0 20.0)
  end
  begin
     id 5 
     name ltoes
     direction 1.53539e-011 -4.21781e-011 1   
     length 0.964376   
     axis -90 7.62852e-016 20   XYZ
    dof rx
    limits (-90.0 20.0)
  end
  begin
     id 6 
     name rhipjoint
     direction -0.752153 -0.617542 0.230017   
     length 2.51754  
     axis 0 0 0  XYZ 
  end
  begin
     id 7 
     name rfemur
     direction -0.34202 -0.939693 0   
     length 6.82377   
     axis 0 0 -20   XYZ
    dof rx ry rz
    limits (-160.0 20.0)
           (-70.0 70.0)
           (-70.0 60.0)
  end
  begin
     id 8 
     name rtibia
     direction -0.34202 -0.939693 0   
     length 6.98689   
     axis 0 0 -20   XYZ
    dof rx
    limits (-10.0 170.0)
 end
 begin
     id 9 
     name rfoot
     direction -0.0900426 -0.24739 0.964723   
     length 2.03215  
     axis -90 -7.62852e-016 -20   XYZ
    dof rx rz
    limits (-45.0 90.0)
           (-20.0 70.0)
  end
  begin
     id 10 
     name rtoes
     direction -1.53466e-011 -4.22206e-011 1   
     length 1.0197   
     axis -90 -7.62852e-016 -20   XYZ
    dof rx
    limits (-90.0 20.0)
  end
  begin
     id 11 
     name lowerback
     direction 0.0184183 0.995705 -0.0907278   
     length 2.019   
     axis 0 0 0   XYZ
    dof rx ry rz
    limits (-20.0 45.0)
           (-30.0 30.0)
           (-30.0 30.0)
  end
  begin
     id 12 
     name upperback
     direction 0.00281055 0.998777 0.0493607   
     length 1.99623   
     axis 0 0 0   XYZ
    dof rx ry rz
    limits (-20.0 45.0)
           (-30.0 30.0)
           (-30.0 30.0)
  end
  begin
     id 13 
     name thorax
     direction -0.00665507 0.995706 0.092331   
     length 2.02811   
     axis 0 0 0   XYZ
    dof rx ry rz
    limits (-20.0 45.0)
           (-30.0 30.0)
           (-30.0 30.0)
  end
  begin
     id 14 
     name lowerneck
     direction -0.0960965 0.994358 0.0449225   
     length 1.71265   
     axis 0 0 0   XYZ
    dof rx ry rz
    limits (-20.0 45.0)
           (-30.0 30.0)
           (-30.0 30.0)
  end
  begin
     id 15 
     name upperneck
     direction 0.13642 0.985357 -0.102278   
     length 1.73016   
     axis 0 0 0   XYZ
    dof rx ry rz
    limits (-20.0 45.0)
           (-30.0 30.0)
           (-30.0 30.0)
  end
  begin
     id 16
     name head
     direction 0.0556079 0.997632 -0.040479  
     length 1.74275  
     axis 0 0 0   XYZ
    dof rx ry rz
    limits (-20.0 45.0)
           (-30.0 30.0)
           (-30.0 30.0)
  end
  begin
     id 17 
     name lclavicle
     direction 0.90877 0.417247 -0.00652364  
     length 3.25514  
     axis 0 0 0   XYZ
    dof ry rz
    limits (-20.0 10.0)
           (0.0 20.0)
  end
  begin
     id 18 
     name lhumerus
     direction 1 -4.48949e-011 8.31417e-028   
     length 4.84834   
     axis 180 -30 -90   XYZ
    dof rx ry rz
    limits (-60.0 90.0)
           (-90.0 90.0)
           (-90.0 90.0)
  end
  begin
     id 19
     name lradius
     direction 1 -4.48984e-011 3.45616e-027   
     length 2.99713   
     axis 180 -30 -90   XYZ
    dof rx
    limits (-10.0 170.0)
  end
  begin
     id 20
     name lwrist
     direction 1 -4.4891e-011 4.0479e-027   
     length 1.49857   
     axis -1.61768e-015 90 90   XYZ
    dof ry
    limits (-180.0 0.0)
 end
  begin
     id 21 
     name lhand
     direction 1 -4.49025e-011 8.0958e-027   
     length 0.693987   
     axis -5.16581e-015 90 90   XYZ
    dof rx rz
    limits (-90.0 90.0)
           (-45.0 45.0)
  end
  begin
     id 22 
     name lfingers
     direction 1 -4.4888e-011 1.61916e-026   
     length 0.55951   
     axis -1.03316e-014 90 90   XYZ
    dof rx
    limits (0.0 90.0)
  end
  begin
     id 23
     name lthumb
     direction 0.707107 -6.3493e-011 0.707107   
     length 0.803348   
     axis -90 45 2.85299e-015   XYZ
    dof rx rz
    limits (-45.0 45.0)
           (-45.0 45.0)
  end
  begin
     id 24 
     name rclavicle
     direction -0.906655 0.41906 0.0486307   
     length 3.3311  
     axis 0 0 0   XYZ 
    dof ry rz
    limits (-10.0 20.0)
           (-20.0 0.0)
  end
  begin
     id 25 
     name rhumerus
     direction -1 -4.48959e-011 6.37764e-018  
     length 4.93457   
     axis 180 30 90   XYZ
    dof rx ry rz
    limits (-90.0 60.0)
           (-90.0 90.0)
           (-90.0 90.0)
  end
  begin
     id 26 
     name rradius
     direction -1 -4.48957e-011 2.20847e-027   
     length 3.3443   
     axis 180 30 90   XYZ
    dof rx
    limits (-10.0 170.0)
  end
  begin
     id 27 
     name rwrist
     direction -1 -4.49008e-011 4.0479e-027   
     length 1.67215   
     axis -1.61768e-015 -90 -90   XYZ
    dof ry
    limits (-180.0 0.0)
  end
  begin
     id 28
     name rhand
     direction -1 -4.49013e-011 8.0958e-027   
     length 0.677363   
     axis -5.16581e-015 -90 -90   XYZ
    dof rx rz
    limits (-90.0 90.0)
           (-45.0 45.0)
  end
  begin
     id 29
     name rfingers
     direction -1 -4.48832e-011 1.61916e-026   
     length 0.546107   
     axis -1.03316e-014 -90 -90   XYZ
    dof rx
    limits (0.0 90.0)
  end
  begin
     id 30
     name rthumb
     direction -0.707107 -6.34895e-011 0.707107   
     length 0.784104   
     axis -90 -45 -2.85299e-015   XYZ
    dof rx rz
    limits (-45.0 45.0)
           (-45.0 45.0)
  end
:hierarchy
  begin
    root lhipjoint rhipjoint lowerback
    lhipjoint lfemur
    lfemur ltibia
    ltibia lfoot
    lfoot ltoes
    rhipjoint rfemur
    rfemur rtibia
    rtibia rfoot
    rfoot rtoes
    lowerback upperback
    upperback thorax
    thorax lowerneck lclavicle rclavicle
    lowerneck upperneck
    upperneck head
    lclavicle lhumerus
    lhumerus lradius
    lradius lwrist
    lwrist lhand lthumb
    lhand lfingers
    rclavicle rhumerus
    rhumerus rradius
    rradius rwrist
    rwrist rhand rthumb
    rhand rfingers
  end

#!OML:ASF H:\Terrain\Patient Classification 1\junglegym\FridayTest\junglegym.ASF
:FULLY-SPECIFIED
:DEGREES
373
root 9.79571 16.6849 29.9876 3.12523 -1.69416 0.613606
lowerback 2.28566 -0.705506 -1.39204
upperback -3.27954 -0.982298 0.606226
thorax -4.63138 -0.428521 1.46779
lowerneck -4.06733 -1.41381 -14.095
upperneck 11.3855 -2.15484 12.4539
head 4.31284 -1.02074 6.13369
rclavicle -3.41661e-015 1.59028e-014
rhumerus -36.4076 0.486479 -84.4873
rradius 23.7511
rwrist 2.31661
rhand -16.2543 26.6023
rfingers 7.12502
rthumb 9.95479 -3.14235
lclavicle -3.41661e-015 1.59028e-014
lhumerus -37.3878 4.55583 81.1851
lradius 24.1635
lwrist -28.1559
lhand -5.19617 22.4158
lfingers 7.12502
lthumb 20.6049 51.3421
rfemur -30.7202 -1.43046 21.7795
rtibia 67.9699
rfoot -3.26269 -9.91637
rtoes 23.9055
lfemur -13.0313 -4.48411 -27.0305
ltibia 26.9283
lfoot -12.9281 9.09127
ltoes -11.8668
374
root 9.79271 16.668 30.1451 3.54124 -1.71845 0.0450105
lowerback 2.10379 -0.849084 -0.987373
upperback -3.12751 -1.14346 0.878038
thorax -4.36576 -0.520845 1.52615
lowerneck -4.88555 -1.37587 -14.0112
upperneck 11.4914 -2.00248 12.3777
head 4.46286 -0.921904 6.10431
rclavicle 1.45361e-015 2.18663e-015
rhumerus -36.3251 0.0869349 -84.2523
rradius 23.3804
rwrist 2.7548
rhand -16.3021 26.8378
rfingers 7.12502
rthumb 9.90874 -2.90902
lclavicle 1.45361e-015 2.18663e-015
lhumerus -36.3423 3.98098 81.4669
lradius 24.9457
lwrist -26.9957
lhand -5.63965 22.2851
lfingers 7.12502
lthumb 20.1787 51.2571
rfemur -32.3537 -0.914724 22.5426
rtibia 66.5743
rfoot -3.49929 -9.91523
rtoes 19.413
lfemur -13.3187 -4.63447 -26.4463
ltibia 27.6857
lfoot -13.4973 9.56805
ltoes -15.1592
375
root 9.78668 16.6451 30.2936 4.15354 -1.90785 -0.855129
lowerback 2.28316 -0.903878 -0.405842
upperback -3.55304 -1.1733 1.28045
thorax -4.91395 -0.542203 1.62786
lowerneck -4.51869 -1.18363 -13.6992
upperneck 11.453 -1.77361 12.0383
head 4.35279 -0.824323 5.95058
rclavicle -1.24303e-014 1.37161e-014
rhumerus -37.5071 -0.0342135 -84.0235
rradius 23.7341
rwrist 2.89087
rhand -16.2394 26.9541
rfingers 7.12502
rthumb 9.96916 -2.78981
lclavicle -1.24303e-014 1.37161e-014
lhumerus -36.3543 3.27743 81.7109
lradius 25.9545
lwrist -25.9432
lhand -5.81385 22.4344
lfingers 7.12502
lthumb 20.0113 51.424
rfemur -34.1664 -0.0552404 23.6275
rtibia 64.9255
rfoot -3.65013 -10.0336
rtoes 14.1324
lfemur -13.9679 -4.76559 -25.4488
ltibia 28.6004
lfoot -14.3039 9.94402
ltoes -14.5309
376
root 9.7794 16.6182 30.4679 4.2654 -2.09966 -0.930764
lowerback 2.60793 -0.888539 -0.670755
upperback -3.82692 -1.15473 1.48299
thorax -5.37853 -0.51321 1.99674
lowerneck -4.02039 -0.996225 -13.7466
upperneck 11.3669 -1.56495 11.9819
head 4.21361 -0.740368 5.94835
rclavicle 6.24929e-015 1.41137e-014
rhumerus -38.742 0.0214311 -83.7665
rradius 23.9033
rwrist 2.60984
rhand -16.2891 27.0112
rfingers 7.12502
rthumb 9.92122 -2.73499
lclavicle 6.24929e-015 1.41137e-014
lhumerus -36.294 2.4476 82.1378
lradius 26.9213
lwrist -25.2344
lhand -5.2775 22.9243
lfingers 7.12502
lthumb 20.5268 51.8591
rfemur -35.2701 0.572065 23.7472
rtibia 63.2731
rfoot -4.09878 -10.032
rtoes 11.4901
lfemur -13.6168 -4.88132 -25.4329
ltibia 29.0682
lfoot -15.2577 10.2415
ltoes -12.2908
377
root 9.77595 16.5996 30.6515 4.28069 -2.33103 -1.20269
lowerback 2.54349 -0.82447 -0.545905
upperback -3.6529 -1.05615 1.65107
thorax -5.16228 -0.468523 2.08995
lowerneck -4.18967 -0.947346 -13.7932
upperneck 11.2077 -1.45742 11.9406
head 4.18086 -0.685043 5.94534
rclavicle 3.19298e-015 -1.35174e-014
rhumerus -39.1301 -0.428262 -83.3992
rradius 23.7493
rwrist 2.82728
rhand -16.562 27.2114
rfingers 7.12502
rthumb 9.65794 -2.54719
lclavicle 3.19298e-015 -1.35174e-014
lhumerus -35.3673 1.58237 82.5117
lradius 27.508
lwrist -24.5516
lhand -5.18396 23.0285
lfingers 7.12502
lthumb 20.6167 51.9537
rfemur -36.0618 1.24875 24.026
rtibia 61.3965
rfoot -4.70759 -10.1013
rtoes 12.9139
lfemur -12.8551 -5.61045 -25.2563
ltibia 29.1105
lfoot -16.3 11.0483
ltoes -8.60377
378
root 9.78984 16.5968 30.8289 4.51291 -1.50704 -0.0821275
lowerback 2.2897 -1.10887 -1.29321
upperback -3.58894 -1.4893 1.28625
thorax -4.92443 -0.665739 2.15247
lowerneck -4.36999 -0.99319 -13.5469
upperneck 11.1133 -1.47393 11.6009
head 4.18394 -0.693875 5.7904
rclavicle -1.25669e-014 1.09332e-014
rhumerus -39.6527 -0.988182 -83.1079
rradius 23.8922
rwrist 3.12219
rhand -16.7317 27.1214
rfingers 7.12502
rthumb 9.49423 -2.64475
lclavicle -1.25669e-014 1.09332e-014
lhumerus -34.4606 0.612122 82.6678
lradius 27.9335
lwrist -23.9098
lhand -5.67353 22.6218
lfingers 7.12502
lthumb 20.1462 51.5972
rfemur -37.0282 0.530216 22.7014
rtibia 59.5624
rfoot -5.49977 -9.75242
rtoes 14.3082
lfemur -11.9955 -6.4303 -26.6021
ltibia 28.4762
lfoot -16.8267 11.1458
ltoes -7.71833
379
root 9.79004 16.5977 31.0125 4.56856 -1.22924 0.279019
lowerback 2.39418 -1.59946 -1.92889
upperback -2.88873 -2.17627 1.26432
thorax -4.20062 -1.0019 2.51522
lowerneck -7.44836 -1.01404 -12.5745
upperneck 11.9403 -1.21088 11.0099
head 4.92051 -0.478088 5.47264
rclavicle 1.55999e-015 2.0276e-014
rhumerus -38.4342 -0.793549 -83.4729
rradius 23.4584
rwrist 3.35001
rhand -16.831 27.0096
rfingers 7.12502
rthumb 9.39845 -2.76083
lclavicle 1.55999e-015 2.0276e-014
lhumerus -32.6214 0.696218 82.1335
lradius 28.6622
lwrist -23.1498
lhand -6.02571 22.3311
lfingers 7.12502
lthumb 19.8076 51.3418
rfemur -37.6436 0.650119 22.2181
rtibia 57.4278
rfoot -5.72437 -9.7169
rtoes 14.3233
lfemur -10.8231 -6.48767 -27.0838
ltibia 27.5889
lfoot -16.9956 11.0569
ltoes -7.94816
